# AST/ASF file generated using VICON BodyLanguage
# -----------------------------------------------
:version 1.10
:name VICON
:units
  mass 1.0
  length 0.45
  angle deg
:documentation
   .ast/.asf automatically generated from VICON data using
   VICON BodyBuilder and BodyLanguage model FoxedUp or BRILLIANT.MOD
:root
   order TX TY TZ RX RY RZ
   axis XYZ
   position 0 0 0  
   orientation 0 0 0 
:bonedata
  begin
     id 1 
     name lhipjoint
     direction 0.711131 -0.61297 0.344326 
     length 2.29162 
     axis 0 0 0  XYZ
  end
  begin
     id 2 
     name lfemur
     direction 0.34202 -0.939693 0  
     length 6.71424  
     axis 0 0 20  XYZ
    dof rx ry rz
    limits (-160.0 20.0)
           (-70.0 70.0)
           (-60.0 70.0)
  end
  begin
     id 3 
     name ltibia
     direction 0.34202 -0.939693 0   
     length 6.7087   
     axis 0 0 20   XYZ
    dof rx
    limits (-10.0 170.0)
  end
  begin
     id 4 
     name lfoot
     direction 0.0230374 -0.0632947 0.997729   
     length 1.56743   
     axis -90 7.62852e-016 20   XYZ
    dof rx rz
    limits (-45.0 90.0)
           (-70.0 20.0)
  end
  begin
     id 5 
     name ltoes
     direction 1.53585e-011 -4.21885e-011 1   
     length 0.802914   
     axis -90 7.62852e-016 20   XYZ
    dof rx
    limits (-90.0 20.0)
  end
  begin
     id 6 
     name rhipjoint
     direction -0.733192 -0.592884 0.333043   
     length 2.36925  
     axis 0 0 0  XYZ 
  end
  begin
     id 7 
     name rfemur
     direction -0.34202 -0.939693 0   
     length 6.67027   
     axis 0 0 -20   XYZ
    dof rx ry rz
    limits (-160.0 20.0)
           (-70.0 70.0)
           (-70.0 60.0)
  end
  begin
     id 8 
     name rtibia
     direction -0.34202 -0.939693 0   
     length 6.6862   
     axis 0 0 -20   XYZ
    dof rx
    limits (-10.0 170.0)
 end
 begin
     id 9 
     name rfoot
     direction -0.0949739 -0.260939 0.960672   
     length 1.67698  
     axis -90 -7.62852e-016 -20   XYZ
    dof rx rz
    limits (-45.0 90.0)
           (-20.0 70.0)
  end
  begin
     id 10 
     name rtoes
     direction -1.5353e-011 -4.21868e-011 1   
     length 0.846298   
     axis -90 -7.62852e-016 -20   XYZ
    dof rx
    limits (-90.0 20.0)
  end
  begin
     id 11 
     name lowerback
     direction -0.0206828 0.999785 -0.00109866   
     length 2.04382   
     axis 0 0 0   XYZ
    dof rx ry rz
    limits (-20.0 45.0)
           (-30.0 30.0)
           (-30.0 30.0)
  end
  begin
     id 12 
     name upperback
     direction -0.0105003 0.999727 -0.0208904   
     length 2.04538   
     axis 0 0 0   XYZ
    dof rx ry rz
    limits (-20.0 45.0)
           (-30.0 30.0)
           (-30.0 30.0)
  end
  begin
     id 13 
     name thorax
     direction -0.000416255 0.999808 -0.0196023   
     length 2.0399   
     axis 0 0 0   XYZ
    dof rx ry rz
    limits (-20.0 45.0)
           (-30.0 30.0)
           (-30.0 30.0)
  end
  begin
     id 14 
     name lowerneck
     direction 0.0627861 0.989205 0.13241   
     length 1.46207   
     axis 0 0 0   XYZ
    dof rx ry rz
    limits (-20.0 45.0)
           (-30.0 30.0)
           (-30.0 30.0)
  end
  begin
     id 15 
     name upperneck
     direction 0.00627179 0.994526 0.104303   
     length 1.41419   
     axis 0 0 0   XYZ
    dof rx ry rz
    limits (-20.0 45.0)
           (-30.0 30.0)
           (-30.0 30.0)
  end
  begin
     id 16
     name head
     direction -0.00443838 0.999688 0.0245968  
     length 1.50718  
     axis 0 0 0   XYZ
    dof rx ry rz
    limits (-20.0 45.0)
           (-30.0 30.0)
           (-30.0 30.0)
  end
  begin
     id 17 
     name lclavicle
     direction 0.758742 0.650995 -0.0227258  
     length 2.86888  
     axis 0 0 0   XYZ
    dof ry rz
    limits (-20.0 10.0)
           (0.0 20.0)
  end
  begin
     id 18 
     name lhumerus
     direction 1 -4.48962e-011 1.06664e-027   
     length 4.65776   
     axis -180 -30 -90   XYZ
    dof rx ry rz
    limits (-60.0 90.0)
           (-90.0 90.0)
           (-90.0 90.0)
  end
  begin
     id 19
     name lradius
     direction 1 -4.48968e-011 1.40404e-026   
     length 3.55539   
     axis -180 -30 -90   XYZ
    dof rx
    limits (-10.0 170.0)
  end
  begin
     id 20
     name lwrist
     direction 1 -4.48976e-011 3.32647e-026   
     length 1.77769   
     axis -2.20186e-014 90 90   XYZ
    dof ry
    limits (-180.0 0.0)
 end
  begin
     id 21 
     name lhand
     direction 1 -4.48982e-011 6.65293e-026   
     length 0.707264   
     axis -4.24514e-014 90 90   XYZ
    dof rx rz
    limits (-90.0 90.0)
           (-45.0 45.0)
  end
  begin
     id 22 
     name lfingers
     direction 1 -4.48966e-011 1.33059e-025   
     length 0.570215   
     axis -8.49028e-014 90 90   XYZ
    dof rx
    limits (0.0 90.0)
  end
  begin
     id 23
     name lthumb
     direction 0.707107 -6.3493e-011 0.707107   
     length 0.818718   
     axis -90 45 2.85299e-015   XYZ
    dof rx rz
    limits (-45.0 45.0)
           (-45.0 45.0)
  end
  begin
     id 24 
     name rclavicle
     direction -0.870343 0.482028 -0.100759   
     length 3.2251  
     axis 0 0 0   XYZ 
    dof ry rz
    limits (-10.0 20.0)
           (-20.0 0.0)
  end
  begin
     id 25 
     name rhumerus
     direction -1 -4.48974e-011 -9.45849e-028  
     length 4.71925   
     axis -180 30 90   XYZ
    dof rx ry rz
    limits (-90.0 60.0)
           (-90.0 90.0)
           (-90.0 90.0)
  end
  begin
     id 26 
     name rradius
     direction -1 -4.48965e-011 1.17607e-026   
     length 3.5699   
     axis -180 30 90   XYZ
    dof rx
    limits (-10.0 170.0)
  end
  begin
     id 27 
     name rwrist
     direction -1 -4.48968e-011 3.32647e-026   
     length 1.78495   
     axis -2.20186e-014 -90 -90   XYZ
    dof ry
    limits (-180.0 0.0)
  end
  begin
     id 28
     name rhand
     direction -1 -4.48995e-011 6.65293e-026   
     length 0.507757   
     axis -4.24514e-014 -90 -90   XYZ
    dof rx rz
    limits (-90.0 90.0)
           (-45.0 45.0)
  end
  begin
     id 29
     name rfingers
     direction -1 -4.48864e-011 1.33059e-025   
     length 0.409367   
     axis -8.49028e-014 -90 -90   XYZ
    dof rx
    limits (0.0 90.0)
  end
  begin
     id 30
     name rthumb
     direction -0.707107 -6.3494e-011 0.707107   
     length 0.587771   
     axis -90 -45 -2.85299e-015   XYZ
    dof rx rz
    limits (-45.0 45.0)
           (-45.0 45.0)
  end
:hierarchy
  begin
    root lhipjoint rhipjoint lowerback
    lhipjoint lfemur
    lfemur ltibia
    ltibia lfoot
    lfoot ltoes
    rhipjoint rfemur
    rfemur rtibia
    rtibia rfoot
    rfoot rtoes
    lowerback upperback
    upperback thorax
    thorax lowerneck lclavicle rclavicle
    lowerneck upperneck
    upperneck head
    lclavicle lhumerus
    lhumerus lradius
    lradius lwrist
    lwrist lhand lthumb
    lhand lfingers
    rclavicle rhumerus
    rhumerus rradius
    rradius rwrist
    rwrist rhand rthumb
    rhand rfingers
  end

#!OML:ASF E:\Steps\Project 1\Capture day 1\Session 2\Subject.ASF
:FULLY-SPECIFIED
:DEGREES
17
root 16.1124 16.3401 21.1112 -155.077 -0.285178 177.984
lowerback -30.1534 -2.09089 -7.41543
upperback -1.12774 -0.858745 -0.0862388
thorax 14.6615 -1.15405 3.51615
lowerneck -5.82784 -1.64707 -0.786797
upperneck 4.75084 -2.31439 3.6663
head 2.58269 -1.0289 1.22184
rclavicle 8.64713e-015 1.07344e-014
rhumerus -36.8452 -20.9978 -77.9046
rradius 29.2709
rwrist -2.44382
rhand -8.70879 -60.6169
rfingers 7.12502
rthumb 17.2267 -89.8733
lclavicle 8.64713e-015 1.07344e-014
lhumerus -31.0918 8.55566 80.1404
lradius 20.2023
lwrist -5.42864
lhand -22.336 -12.4997
lfingers 7.12502
lthumb 4.08427 17.4409
rfemur -22.2669 7.68809 18.5935
rtibia 8.63405
rfoot -18.8874 -3.07104
rtoes -19.2762
lfemur -22.8718 -8.12942 -21.7893
ltibia 8.45584
lfoot -6.78528 -2.88256
ltoes -30.8383
18
root 16.112 16.3393 21.11 -155.094 -0.264862 177.962
lowerback -30.1543 -2.0749 -7.41764
upperback -1.11811 -0.833382 -0.0995804
thorax 14.6699 -1.14258 3.51303
lowerneck -5.87817 -1.69647 -0.73973
upperneck 4.80067 -2.38369 3.62277
head 2.6088 -1.06287 1.19655
rclavicle 1.2921e-015 -1.86858e-014
rhumerus -36.7889 -21.0192 -77.9059
rradius 29.1889
rwrist -2.51891
rhand -8.81472 -60.8739
rfingers 7.12502
rthumb 17.1248 -269.861
lclavicle 1.2921e-015 -1.86858e-014
lhumerus -31.0823 8.59054 80.1385
lradius 20.1503
lwrist -5.36675
lhand -22.4422 -12.5043
lfingers 7.12502
lthumb 3.98179 17.4383
rfemur -22.2435 7.70805 18.5591
rtibia 8.63015
rfoot -18.9009 -3.13603
rtoes -19.3474
lfemur -22.867 -8.18942 -21.8177
ltibia 8.4914
lfoot -6.79988 -2.80551
ltoes -31.3327
19
root 16.1113 16.3393 21.1093 -155.103 -0.269771 177.985
lowerback -30.1603 -2.03957 -7.3668
upperback -1.11336 -0.800689 -0.116848
thorax 14.6743 -1.12418 3.4799
lowerneck -5.93303 -1.71189 -0.721397
upperneck 4.76673 -2.40723 3.67634
head 2.609 -1.07182 1.20946
rclavicle -6.70898e-015 2.38542e-015
rhumerus -36.7983 -21.1815 -77.8543
rradius 29.1778
rwrist -2.43452
rhand -8.90695 -61.1307
rfingers 7.12502
rthumb 17.036 -269.596
lclavicle -6.70898e-015 2.38542e-015
lhumerus -31.0785 8.52336 80.1421
lradius 20.1136
lwrist -5.25762
lhand -22.5148 -12.5501
lfingers 7.12502
lthumb 3.91163 17.3938
rfemur -22.2299 7.69782 18.5876
rtibia 8.62899
rfoot -18.8855 -3.09736
rtoes -19.1003
lfemur -22.8662 -8.19329 -21.7921
ltibia 8.53698
lfoot -6.88388 -2.82457
ltoes -31.2406
20
root 16.1099 16.339 21.1088 -155.093 -0.320854 178.05
lowerback -30.1904 -2.04035 -7.25962
upperback -1.10804 -0.839914 -0.0759777
thorax 14.7001 -1.1358 3.45075
lowerneck -5.90616 -1.65823 -0.830551
upperneck 4.71843 -2.32791 3.71367
head 2.5885 -1.03454 1.244
rclavicle 4.32357e-015 7.95139e-016
rhumerus -36.7494 -21.2854 -77.7717
rradius 29.1094
rwrist -2.31967
rhand -8.99716 -61.3216
rfingers 7.12502
rthumb 16.9492 -269.398
lclavicle 4.32357e-015 7.95139e-016
lhumerus -31.1069 8.67976 80.1338
lradius 20.0549
lwrist -5.32492
lhand -22.5428 -12.8123
lfingers 7.12502
lthumb 3.88459 17.132
rfemur -22.2095 7.55055 18.6989
rtibia 8.59922
rfoot -18.914 -2.94821
rtoes -19.0269
lfemur -22.8687 -8.1612 -21.7428
ltibia 8.48444
lfoot -6.89975 -2.87954
ltoes -31.8386
21
root 16.1119 16.3403 21.1093 -155.105 -0.265817 178.026
lowerback -30.1675 -2.03373 -7.30677
upperback -1.11151 -0.817508 -0.0743604
thorax 14.6831 -1.12855 3.48743
lowerneck -5.85476 -1.64012 -0.868642
upperneck 4.69357 -2.30053 3.72483
head 2.57077 -1.02221 1.25552
rclavicle -6.75868e-015 -2.90226e-014
rhumerus -36.7326 -21.3499 -77.7398
rradius 29.0687
rwrist -2.36563
rhand -9.08363 -61.4894
rfingers 7.12502
rthumb 16.8659 -269.223
lclavicle -6.75868e-015 -2.90226e-014
lhumerus -31.1255 8.66777 80.1543
lradius 19.9847
lwrist -5.30299
lhand -22.56 -13.0419
lfingers 7.12502
lthumb 3.86797 16.9028
rfemur -22.2274 7.67413 18.6449
rtibia 8.61456
rfoot -19.0049 -3.0508
rtoes -19.6958
lfemur -22.8514 -8.12391 -21.7601
ltibia 8.44656
lfoot -6.87239 -2.80987
ltoes -32.19
22
root 16.1123 16.3398 21.109 -155.08 -0.30316 178.021
lowerback -30.2007 -2.05816 -7.29362
upperback -1.11092 -0.855 -0.0507831
thorax 14.7036 -1.14577 3.49032
lowerneck -5.91746 -1.68744 -0.839838
upperneck 4.68896 -2.36429 3.67111
head 2.58094 -1.05505 1.2301
rclavicle 1.88845e-015 2.38542e-015
rhumerus -36.7203 -21.1984 -77.7698
rradius 29.1289
rwrist -2.55489
rhand -9.18481 -61.7152
rfingers 7.12502
rthumb 16.7685 -268.989
lclavicle 1.88845e-015 2.38542e-015
lhumerus -31.108 8.67033 80.1907
lradius 19.9091
lwrist -5.24916
lhand -22.5844 -13.0625
lfingers 7.12502
lthumb 3.84444 16.8825
rfemur -22.2369 7.66813 18.6455
rtibia 8.6049
rfoot -19.006 -3.04012
rtoes -19.9658
lfemur -22.8605 -8.23696 -21.7285
ltibia 8.54235
lfoot -6.95339 -2.7644
ltoes -31.8489
23
root 16.1123 16.3394 21.1099 -155.047 -0.393538 178.041
lowerback -30.2401 -2.08822 -7.24051
upperback -1.0826 -0.906845 -0.028878
thorax 14.7614 -1.16644 3.46428
lowerneck -6.10603 -1.73928 -0.763712
upperneck 4.75469 -2.4384 3.57706
head 2.63673 -1.09155 1.1825
rclavicle 5.36719e-015 4.37326e-015
rhumerus -36.6359 -21.1263 -77.8228
rradius 29.1889
rwrist -2.67851
rhand -9.30099 -61.903
rfingers 7.12502
rthumb 16.6567 -268.792
lclavicle 5.36719e-015 4.37326e-015
lhumerus -31.0178 8.69054 80.2113
lradius 19.8361
lwrist -5.24457
lhand -22.5091 -13.0828
lfingers 7.12502
lthumb 3.9172 16.861
rfemur -22.238 7.57206 18.7049
rtibia 8.58691
rfoot -18.9723 -2.89434
rtoes -18.7989
lfemur -22.9277 -8.30554 -21.6844
ltibia 8.67268
lfoot -7.10854 -2.84318
ltoes -32.1594
24
root 16.1133 16.339 21.1122 -155.032 -0.420454 178.011
lowerback -30.2097 -2.10952 -7.27827
upperback -1.11902 -0.931722 -0.022374
thorax 14.7076 -1.17966 3.48192
lowerneck -6.0254 -1.71836 -0.786865
upperneck 4.72705 -2.40776 3.58304
head 2.61217 -1.07769 1.19004
rclavicle 4.96962e-016 1.07344e-014
rhumerus -36.7065 -20.975 -77.8647
rradius 29.3147
rwrist -2.77852
rhand -9.40202 -62.1749
rfingers 7.12502
rthumb 16.5594 -268.512
lclavicle 4.96962e-016 1.07344e-014
lhumerus -31.0912 8.67135 80.2246
lradius 19.8208
lwrist -5.21339
lhand -22.4568 -13.0313
lfingers 7.12502
lthumb 3.96765 16.9115
rfemur -22.2587 7.54276 18.6817
rtibia 8.59679
rfoot -19.0196 -2.86364
rtoes -17.6553
lfemur -22.9874 -8.3248 -21.7094
ltibia 8.74262
lfoot -7.20936 -2.89565
ltoes -33.2722
